PathFileType	4	(X/Y/Z)	57_1_50_p1_0-187_filt_butterworth.trc
DataRate	CameraRate	NumFrames	NumMarkers	Units	OrigDataRate	OrigDataStartFrame	OrigNumFrames
40.0	40.0	4	27	m	40.0	0	187
Frame#	Time	RHip			RKnee			RAnkle			RBigToe			RSmallToe			RHeel			LHip			LKnee			LAnkle			LBigToe			LSmallToe			LHeel			Neck			Head			Nose			RShoulder			RElbow			RWrist			RThumb			RIndex			RPinky			LShoulder			LElbow			LWrist			LThumb			LIndex			LPinky			
		X1	Y1	Z1	X2	Y2	Z2	X3	Y3	Z3	X4	Y4	Z4	X5	Y5	Z5	X6	Y6	Z6	X7	Y7	Z7	X8	Y8	Z8	X9	Y9	Z9	X10	Y10	Z10	X11	Y11	Z11	X12	Y12	Z12	X13	Y13	Z13	X14	Y14	Z14	X15	Y15	Z15	X16	Y16	Z16	X17	Y17	Z17	X18	Y18	Z18	X19	Y19	Z19	X20	Y20	Z20	X21	Y21	Z21	X22	Y22	Z22	X23	Y23	Z23	X24	Y24	Z24	X25	Y25	Z25	X26	Y26	Z26	X27	Y27	Z27	
0	0.0	0.2636682035037647	0.5983319769470479	0.9858078759837756	0.2688968374894996	0.7555290173963314	1.388740782480488	0.29127171801312346	0.9572204001916469	1.780731344019179	0.25078946180427136	0.6984965550636144	1.8126629690669263	0.30459834392578317	0.7406678415545835	1.8045508074517067	0.2714954805630675	1.0201537715794549	1.8159224471695667	0.04958999398868876	0.5922804207064769	0.9959896181468064	0.05389763970909363	0.740256318370549	1.3893416242598735	0.06812746116935411	0.8848692914960672	1.7744596031924667	0.08566407528311618	0.671837350351014	1.805381592124868	0.03333025618384095	0.7316392826753417	1.8201461833371022	0.08957711480495407	0.9668965281247894	1.8265717543459736	0.13730811295461648	0.3944371747914571	0.4537245444169441	0.13279732165433933	0.29612947317722565	0.2221922184738791	0.132667017667055	0.28547690200356524	0.36464199225605204	0.30597378585612955	0.4435290533286711	0.5163699368438188	0.34397189799001454	0.4727523892221606	0.7680082391124112	0.1805129772039594	0.4351978503684635	0.9598606525852593	0.13618606903882027	0.431074021942379	1.0593330320080658	0.12851424065925954	0.44727614505472657	1.069537575383832	0.13772678795927404	0.44966422262393946	1.069928033317963	-0.01818266966615968	0.42541772257579713	0.5246799930798489	-0.02530137285863849	0.4555841384683622	0.7757723574736497	0.08529052024499245	0.4282500682652375	0.9589772950695261	0.16202584727683975	0.42699933614063507	1.028009711270379	0.16193121089361615	0.43876176724073523	1.0716376442541902	0.11920470888570987	0.458894767060335	1.066922020948967
1	0.025	0.2637252592814752	0.5981138913825268	0.9858183963234313	0.26814534355857056	0.7551868167785006	1.393445649918848	0.2905968119300032	0.9544739047412218	1.776605774061511	0.2529488072548974	0.7076308382706353	1.8118707695874936	0.30909771035212175	0.7480628856572237	1.8058744789436267	0.2709058472246883	1.017411525630007	1.8115337225847172	0.04986299921722666	0.5919953744744548	0.9976755721328594	0.05240351223402226	0.7390212217375198	1.3892579158005094	0.0672025558928391	0.881786839757255	1.770251412472519	0.08823864086039598	0.6835358536478233	1.808403760219896	0.03331685872616883	0.7313810948414552	1.8200281237950848	0.08775904411354803	0.9589289662884986	1.8246444703293405	0.13741538203856338	0.3937725942243041	0.4509904381184715	0.13298154886255262	0.29616061883899175	0.2232198147986777	0.1325205685580445	0.28550658521924566	0.3645818683166361	0.3038806738365921	0.4368012001748025	0.5157768049552831	0.34376808155532895	0.47200955473651796	0.7680585491057275	0.1806730471256592	0.4346920326435658	0.9631712797024756	0.14024755313226128	0.43331495897825584	1.0661608911193374	0.1325074126868792	0.44967788477655446	1.0773751269690381	0.13835823599112806	0.4498371162076931	1.072859909510094	-0.017072067365659353	0.42524354540057185	0.5245594694460536	-0.025445272164675767	0.45550602536350204	0.7757718923784086	0.08567700982660423	0.4295749328270877	0.9621260411485808	0.16238894067529533	0.42980694652314266	1.0345213008152876	0.1628413233983312	0.4400937073510487	1.0766093318148184	0.11944248989381627	0.4593362855295503	1.0677158297021185
2	0.05	0.2637753581942493	0.5980199942901093	0.985831803200913	0.2694732221613191	0.7564292803289232	1.3954868492260686	0.2904492651584992	0.9533803612604588	1.7750633705667358	0.25367829899717975	0.7109229856673323	1.8115632874080805	0.31061556707669724	0.7461669211001598	1.8037331688784808	0.2706678653382984	1.016162575400626	1.8098996684680868	0.049863130797425596	0.5919429746606727	0.9971086517478094	0.051868889525901504	0.7385853012753721	1.3890490589475093	0.06685770389174182	0.880695458474581	1.768691691607333	0.08920684187874545	0.6877820892912019	1.8095170600276138	0.03335639633912717	0.731183713690996	1.8199622401136073	0.08826156780768633	0.9614756271959384	1.8252746385044651	0.13745169080816477	0.39350451559596655	0.4500725476465439	0.13307457404999098	0.2964149069649373	0.22468321731822158	0.13254476928044917	0.28603392600923216	0.364478276240084	0.3045761210959116	0.43886569225071675	0.5158772214919188	0.34493066393024124	0.4757190835868935	0.7676426484347372	0.1806149944345066	0.4341848564612234	0.9632802156273486	0.14017650411263205	0.43338091047144817	1.0661687763899548	0.13258409277004427	0.4497559949907258	1.076775754587726	0.13845520582655943	0.4498619208819403	1.0735667358765044	-0.01519176008346188	0.42619695633862453	0.5242769766580307	-0.02549841037990434	0.4555553228579959	0.7757826431002376	0.08567581206431535	0.4296667099178001	0.9621321719784014	0.16231739051158128	0.43020912949318546	1.0356027681336413	0.16308005864425584	0.4407148494152675	1.0771510846804613	0.11956966394784613	0.45953315459556215	1.067994116232128
3	0.075	0.2637921371491349	0.5981478628177335	0.9858192832480117	0.27184152369093556	0.7579947792623765	1.3944914543644102	0.2906195432858928	0.9535100719020433	1.775302834974263	0.2535093779406986	0.7104261708132383	1.8116330054144334	0.3094972699823971	0.7410696919668628	1.801243983771141	0.270700194685329	1.0163130516150507	1.8102067466994542	0.04976673373408912	0.5920811387285106	0.9958328199321835	0.052054314364818915	0.7383842106661237	1.3866621394533065	0.06691118393583068	0.8809659642709671	1.7689685318955752	0.08904128219253848	0.686960814048477	1.8093451335312563	0.03342530644770886	0.7311454704096128	1.8199660274746794	0.08944939030278017	0.9669684794133643	1.8266059265723893	0.1373215216604107	0.39323371223833614	0.45126938635868663	0.13304282187193425	0.296591693051229	0.22554546107230622	0.13351496858337447	0.28559494614492464	0.36458757359704563	0.3059112738959697	0.4429361400385009	0.5154581242133153	0.3469356986679679	0.4823480291542219	0.7672036373096968	0.18123906972451762	0.43689931392136633	0.9612240859702517	0.13736950695646238	0.4314272270911772	1.0605191290235685	0.13096241517860174	0.4482065699753743	1.07135068863248	0.13809401941758584	0.449703474342642	1.071934448572138	-0.013211712364348434	0.4304042035069984	0.523580377731344	-0.025513228390037692	0.45569634449882607	0.7757710631382825	0.0859496643219682	0.4314385153379958	0.9591806972288444	0.16177010033466865	0.4282800721973813	1.0311836343600667	0.16273955826632544	0.44065892894183134	1.074720461378943	0.11937993974343253	0.45882871843911854	1.0667678506135856
